<svg id="Lager_1" data-name="Lager 1" xmlns="http://www.w3.org/2000/svg" xmlns:xlink="http://www.w3.org/1999/xlink" viewBox="0 0 340.67 216"><defs><style>.cls-1,.cls-4,.cls-5{fill:none;}.cls-2,.cls-5{stroke:#000;stroke-width:0.8px;}.cls-2,.cls-4{stroke-linejoin:round;}.cls-3{clip-path:url(#clip-path);}.cls-4{stroke:#1f77b4;stroke-width:1.5px;}.cls-4,.cls-5{stroke-linecap:square;}</style><clipPath id="clip-path"><rect class="cls-1" x="52.67" y="6.75" width="279.56" height="176.85"/></clipPath></defs><g id="figure_1" data-name="figure 1"><g id="patch_1" data-name="patch 1"><path class="cls-1" d="M-19.33,216h360V0h-360Z"/></g><g id="axes_1" data-name="axes 1"><g id="patch_2" data-name="patch 2"><path class="cls-1" d="M52.67,183.6H332.23V6.75H52.67Z"/></g><g id="matplotlib.axis_1" data-name="matplotlib.axis 1"><g id="xtick_1" data-name="xtick 1"><g id="line2d_1" data-name="line2d 1"><path id="m46aa67d059" class="cls-2" d="M65.37,183.6v3.5"/></g><g id="text_1" data-name="text 1"><path id="DejaVuSans-30" d="M65.37,191.56a1.21,1.21,0,0,0-1.14.75,6.69,6.69,0,0,0,0,4.5,1.21,1.21,0,0,0,1.14.75,1.22,1.22,0,0,0,1.15-.75,6.69,6.69,0,0,0,0-4.5A1.22,1.22,0,0,0,65.37,191.56Zm0-.78a2.1,2.1,0,0,1,1.87,1,6.4,6.4,0,0,1,0,5.62,2.29,2.29,0,0,1-3.74,0,6.4,6.4,0,0,1,0-5.62A2.1,2.1,0,0,1,65.37,190.78Z"/></g></g><g id="xtick_2" data-name="xtick 2"><g id="line2d_2" data-name="line2d 2"><path id="m46aa67d059-2" data-name="m46aa67d059" class="cls-2" d="M319.52,183.6v3.5"/></g><g id="text_2" data-name="text 2"><path id="DejaVuSans-Oblique-75" d="M309.24,196l.64-3.3h.9l-.64,3.27c0,.16-.05.29-.07.41s0,.2,0,.28a.85.85,0,0,0,.25.64,1.05,1.05,0,0,0,.72.23,1.76,1.76,0,0,0,1.25-.49,2.38,2.38,0,0,0,.69-1.31l.6-3h.9l-1.06,5.47h-.9l.18-.86a2.67,2.67,0,0,1-.9.74,2.52,2.52,0,0,1-1.12.26,1.54,1.54,0,0,1-1.12-.39,1.51,1.51,0,0,1-.4-1.1,2.86,2.86,0,0,1,0-.37A3.79,3.79,0,0,1,309.24,196Z"/><path id="DejaVuSans-Oblique-6d" d="M321.2,197.5l-.45,2.31h-.63l.44-2.29c0-.1,0-.18,0-.26a1.21,1.21,0,0,0,0-.18.61.61,0,0,0-.17-.47.62.62,0,0,0-.48-.18,1.15,1.15,0,0,0-.81.35,1.6,1.6,0,0,0-.47.89l-.42,2.14h-.63l.45-2.29a2.4,2.4,0,0,0,0-.24,1.37,1.37,0,0,0,0-.19.61.61,0,0,0-.65-.66,1.15,1.15,0,0,0-.82.35,1.67,1.67,0,0,0-.47.89l-.42,2.14h-.62l.74-3.83h.63l-.12.59a1.82,1.82,0,0,1,.6-.51,1.71,1.71,0,0,1,.74-.17,1,1,0,0,1,.68.22.92.92,0,0,1,.33.6,2.11,2.11,0,0,1,.66-.61,1.62,1.62,0,0,1,.8-.21,1,1,0,0,1,.76.28,1.12,1.12,0,0,1,.27.8,2.18,2.18,0,0,1,0,.25C321.23,197.31,321.21,197.4,321.2,197.5Z"/><path id="DejaVuSans-Oblique-61" d="M325.49,197.62l-.43,2.19h-.63l.12-.58a2.15,2.15,0,0,1-.63.51,1.86,1.86,0,0,1-.79.17,1.1,1.1,0,0,1-.8-.3,1,1,0,0,1-.31-.77,1.23,1.23,0,0,1,.53-1.06,2.48,2.48,0,0,1,1.48-.39h.87l0-.17s0,0,0-.06v-.1a.53.53,0,0,0-.25-.47,1.25,1.25,0,0,0-.7-.17,2.86,2.86,0,0,0-.63.08,3.32,3.32,0,0,0-.66.24l.11-.59a5.24,5.24,0,0,1,.69-.2,3.85,3.85,0,0,1,.66-.06,1.6,1.6,0,0,1,1,.29,1,1,0,0,1,.36.86c0,.07,0,.16,0,.26S325.51,197.51,325.49,197.62Zm-.68.26h-.63a2.35,2.35,0,0,0-1.14.21.69.69,0,0,0-.38.64.62.62,0,0,0,.19.47.75.75,0,0,0,.53.17,1.25,1.25,0,0,0,.89-.36,1.81,1.81,0,0,0,.51-1Z"/><path id="DejaVuSans-Oblique-78" d="M330.22,196l-1.76,1.88,1.08,1.95h-.72l-.81-1.52-1.41,1.52h-.76l1.88-2-1-1.81h.72l.73,1.38,1.29-1.38Z"/></g></g><g id="text_3" data-name="text 3"><path id="DejaVuSans-Oblique-75-2" data-name="DejaVuSans-Oblique-75" d="M189.92,209.68l.64-3.3h.9l-.64,3.26c0,.16-.06.3-.07.41a1.62,1.62,0,0,0,0,.29.81.81,0,0,0,.25.64,1.05,1.05,0,0,0,.72.23,1.8,1.8,0,0,0,1.25-.49,2.41,2.41,0,0,0,.69-1.32l.6-3h.9l-1.06,5.47h-.9l.18-.86a2.83,2.83,0,0,1-.91.74,2.51,2.51,0,0,1-1.11.26,1.51,1.51,0,0,1-1.12-.4,1.43,1.43,0,0,1-.4-1.09c0-.1,0-.22,0-.37A3.54,3.54,0,0,1,189.92,209.68Z"/></g></g><g id="matplotlib.axis_2" data-name="matplotlib.axis 2"><g id="ytick_1" data-name="ytick 1"><g id="line2d_3" data-name="line2d 3"><path id="m78a8fa7843" class="cls-2" d="M52.67,175.56h-3.5"/></g><g id="text_4" data-name="text 4"><path id="DejaVuSans-30-2" data-name="DejaVuSans-30" d="M42.48,172.72a1.22,1.22,0,0,0-1.14.75,6.69,6.69,0,0,0,0,4.5,1.25,1.25,0,0,0,2.29,0,6.69,6.69,0,0,0,0-4.5A1.22,1.22,0,0,0,42.48,172.72Zm0-.78a2.12,2.12,0,0,1,1.88,1,6.49,6.49,0,0,1,0,5.62,2.3,2.3,0,0,1-3.75,0,6.4,6.4,0,0,1,0-5.62A2.11,2.11,0,0,1,42.48,171.94Z"/></g></g><g id="ytick_2" data-name="ytick 2"><g id="line2d_4" data-name="line2d 4"><path id="m78a8fa7843-2" data-name="m78a8fa7843" class="cls-2" d="M52.67,14.77h-3.5"/></g><g id="text_5" data-name="text 5"><path id="DejaVuSans-31" d="M8.24,14.54H9.36V10.65l-1.22.25v-.63L9.36,10h.69v4.52h1.12v.59H8.24Z"/><path id="DejaVuSans-34" d="M10,18.85,8.27,21.58H10Zm-.18-.6h.87v3.33h.73v.57H10.7v1.2H10v-1.2H7.71v-.67Z"/><path id="DejaVuSans-Oblique-76" d="M13.79,14h1l.8,4.65L18.16,14h.95L16,19.51H14.79Z"/><path id="DejaVuSans-30-3" data-name="DejaVuSans-30" d="M21.21,16.5a.86.86,0,0,0-.8.52,3.59,3.59,0,0,0-.27,1.58,3.54,3.54,0,0,0,.27,1.57.88.88,0,0,0,1.61,0,3.54,3.54,0,0,0,.27-1.57A3.59,3.59,0,0,0,22,17,.86.86,0,0,0,21.21,16.5Zm0-.55a1.47,1.47,0,0,1,1.31.68,3.48,3.48,0,0,1,.46,2,3.5,3.5,0,0,1-.46,2,1.6,1.6,0,0,1-2.62,0,3.59,3.59,0,0,1-.45-2,3.57,3.57,0,0,1,.45-2A1.48,1.48,0,0,1,21.21,16Z"/><path id="DejaVuSans-Oblique-75-3" data-name="DejaVuSans-Oblique-75" d="M24.38,17.34,25,14h.91l-.64,3.26a2.7,2.7,0,0,0-.07.41,1.78,1.78,0,0,0,0,.29.82.82,0,0,0,.26.64,1.05,1.05,0,0,0,.72.23,1.82,1.82,0,0,0,1.25-.49,2.33,2.33,0,0,0,.68-1.32l.61-3h.89l-1.06,5.47h-.89l.18-.86a2.94,2.94,0,0,1-.91.74,2.51,2.51,0,0,1-1.11.26,1.49,1.49,0,0,1-1.12-.4,1.43,1.43,0,0,1-.4-1.09,2.62,2.62,0,0,1,0-.37C24.33,17.64,24.35,17.49,24.38,17.34Z"/><path id="DejaVuSans-Oblique-6d-2" data-name="DejaVuSans-Oblique-6d" d="M36.34,18.83l-.45,2.32h-.63l.44-2.29a1.51,1.51,0,0,0,0-.26,1.41,1.41,0,0,0,0-.18.59.59,0,0,0-.65-.65,1.15,1.15,0,0,0-.82.35,1.59,1.59,0,0,0-.46.89l-.42,2.14h-.63l.45-2.29c0-.09,0-.17,0-.24a1.28,1.28,0,0,0,0-.19.65.65,0,0,0-.17-.48.61.61,0,0,0-.47-.18,1.18,1.18,0,0,0-.83.35,1.59,1.59,0,0,0-.46.89l-.42,2.14H30.3l.75-3.83h.63l-.12.59a1.82,1.82,0,0,1,.6-.51,1.54,1.54,0,0,1,.73-.17,1.09,1.09,0,0,1,.69.21.89.89,0,0,1,.32.61,1.94,1.94,0,0,1,.67-.61,1.58,1.58,0,0,1,.79-.21,1,1,0,0,1,.76.28,1.12,1.12,0,0,1,.27.8,2.18,2.18,0,0,1,0,.25A2.51,2.51,0,0,1,36.34,18.83Z"/><path id="DejaVuSans-Oblique-61-2" data-name="DejaVuSans-Oblique-61" d="M40.63,19l-.43,2.19h-.62l.11-.58a1.92,1.92,0,0,1-.63.51,1.83,1.83,0,0,1-.79.17,1.12,1.12,0,0,1-.8-.3,1,1,0,0,1-.31-.77,1.25,1.25,0,0,1,.53-1.06,2.48,2.48,0,0,1,1.48-.39H40l0-.17s0,0,0-.06v-.1a.53.53,0,0,0-.25-.47,1.21,1.21,0,0,0-.69-.17,2.27,2.27,0,0,0-.63.08,3.8,3.8,0,0,0-.67.23l.11-.58a5,5,0,0,1,.7-.2,3.68,3.68,0,0,1,.66-.06,1.56,1.56,0,0,1,1,.29,1.06,1.06,0,0,1,.35.85c0,.08,0,.17,0,.27S40.65,18.85,40.63,19Zm-.68.26h-.63a2.41,2.41,0,0,0-1.14.21.68.68,0,0,0-.37.64.58.58,0,0,0,.19.47.76.76,0,0,0,.52.17,1.26,1.26,0,0,0,.9-.37,1.8,1.8,0,0,0,.5-1Z"/><path id="DejaVuSans-Oblique-78-2" data-name="DejaVuSans-Oblique-78" d="M45.36,17.32l-1.75,1.87,1.07,2H44l-.81-1.52-1.41,1.52H41l1.88-2-1-1.81h.72l.74,1.38,1.28-1.38Z"/><path d="M7.37,17.63V17h4.45v.63Z"/></g></g><g id="text_6" data-name="text 6"><path id="DejaVuSans-Oblique-66" d="M22.49,99.14l.75.14v.86a1.08,1.08,0,0,0,.19.71,1.38,1.38,0,0,0,.7.33l.49.09V99.79l.7.14v1.48l4.77.92v.91l-4.77-.94v.86l-.7-.12v-.86l-.38-.08a2.26,2.26,0,0,1-1.36-.65,2.27,2.27,0,0,1-.39-1.47Z"/><path id="DejaVuSans-28" d="M22.5,97.29a10.19,10.19,0,0,0,2.22,1,8,8,0,0,0,2.23.31,7.76,7.76,0,0,0,2.23-.32,9.31,9.31,0,0,0,2.22-1v.79a10.08,10.08,0,0,1-2.25,1.09,6.73,6.73,0,0,1-4.4,0,10.06,10.06,0,0,1-2.25-1.09Z"/><path id="DejaVuSans-Oblique-75-4" data-name="DejaVuSans-Oblique-75" d="M27.92,95.82l-3.3-.64v-.9l3.26.64.41.07a1.62,1.62,0,0,0,.29,0,.81.81,0,0,0,.64-.25,1.05,1.05,0,0,0,.23-.72A1.8,1.8,0,0,0,29,92.79a2.41,2.41,0,0,0-1.32-.69l-3-.6v-.9l5.47,1.06v.9l-.86-.18a2.94,2.94,0,0,1,.74.91,2.51,2.51,0,0,1,.26,1.11,1.51,1.51,0,0,1-.4,1.12,1.43,1.43,0,0,1-1.09.4l-.37,0A3.54,3.54,0,0,1,27.92,95.82Z"/><path id="DejaVuSans-29" d="M22.5,89.35v-.78a10.06,10.06,0,0,1,2.25-1.09,6.73,6.73,0,0,1,4.4,0,9.66,9.66,0,0,1,2.25,1.09v.78a10.2,10.2,0,0,0-2.22-1A8.12,8.12,0,0,0,27,88.06a8,8,0,0,0-2.23.32A10.63,10.63,0,0,0,22.5,89.35Z"/></g></g><g id="line2d_5" data-name="line2d 5"><g class="cls-3"><path class="cls-4" d="M65.37,175.56l2.57-6.43,2.57-6.3,2.57-6.17,2.56-6,2.57-5.91,2.57-5.78,2.56-5.64,2.57-5.51,2.57-5.38,2.57-5.25L93.61,112l2.57-5,2.57-4.85,2.56-4.73,2.57-4.59,2.57-4.46L109,84.08l2.56-4.19,2.57-4.07,2.57-3.94,2.56-3.81,2.57-3.67,2.57-3.55L127,57.44l2.56-3.28L132.12,51l2.57-3,2.56-2.88,2.57-2.76,2.57-2.63L145,37.23l2.56-2.36,2.57-2.23,2.57-2.1,2.56-2,2.57-1.84,2.57-1.7,2.57-1.58L165.49,22l2.57-1.32,2.57-1.18,2.56-1.05,2.57-.92,2.57-.78,2.57-.66,2.56-.52,2.57-.4,2.57-.26,2.56-.13h2.57l2.57.13,2.57.26,2.56.4,2.57.52,2.57.66,2.56.78,2.57.92,2.57,1.05,2.57,1.18L219.4,22,222,23.45,224.54,25l2.56,1.7,2.57,1.84,2.57,2,2.57,2.1,2.56,2.23,2.57,2.36,2.57,2.49,2.56,2.63,2.57,2.76L250.21,48l2.57,3,2.56,3.15,2.57,3.28,2.57,3.41L263,64.4l2.57,3.67,2.57,3.81,2.57,3.94,2.56,4.07,2.57,4.19,2.57,4.34L281,92.88l2.57,4.59,2.57,4.73,2.57,4.85,2.56,5,2.57,5.12,2.57,5.25,2.56,5.38,2.57,5.51,2.57,5.64,2.57,5.78,2.56,5.91,2.57,6,2.57,6.17,2.56,6.3,2.57,6.43"/></g></g><g id="patch_3" data-name="patch 3"><path class="cls-5" d="M52.67,183.6V6.75"/></g><g id="patch_4" data-name="patch 4"><path class="cls-5" d="M332.23,183.6V6.75"/></g><g id="patch_5" data-name="patch 5"><path class="cls-5" d="M52.67,183.6H332.23"/></g><g id="patch_6" data-name="patch 6"><path class="cls-5" d="M52.67,6.75H332.23"/></g></g></g></svg>