<?xml version="1.0" encoding="utf-8"?>
<!-- Generator: Adobe Illustrator 25.2.3, SVG Export Plug-In . SVG Version: 6.00 Build 0)  -->
<svg version="1.1" id="Lager_1" xmlns="http://www.w3.org/2000/svg" xmlns:xlink="http://www.w3.org/1999/xlink" x="0px" y="0px"
	 viewBox="0 0 340.7 216" style="enable-background:new 0 0 340.7 216;" xml:space="preserve">
<style type="text/css">
	.st0{fill:none;}
	.st1{stroke:#000000;stroke-width:0.8;stroke-linejoin:round;}
	.st2{clip-path:url(#SVGID_2_);fill:none;stroke:#1F77B4;stroke-width:1.5;stroke-linecap:square;stroke-linejoin:round;}
	.st3{fill:none;stroke:#000000;stroke-width:0.8;stroke-linecap:square;}
</style>
<g id="figure_1">
	<g id="patch_1">
		<path class="st0" d="M-19.3,216h360V0h-360V216z"/>
	</g>
	<g id="axes_1">
		<g id="patch_2">
			<path class="st0" d="M52.7,183.6h279.6V6.7H52.7V183.6z"/>
		</g>
		<g id="matplotlib.axis_1">
			<g id="xtick_1">
				<g id="line2d_1">
					<g>
						<g>
							<path id="m46aa67d059" class="st1" d="M65.4,183.6v3.5"/>
						</g>
					</g>
				</g>
				<g id="text_1">
					<g transform="translate(81.526136 198.198438)scale(0.1 -0.1)">
						<g>
							<path id="DejaVuSans-30" d="M-161.6,66.4c-5.1,0-8.9-2.5-11.5-7.5c-2.6-5-3.8-12.5-3.8-22.5c0-10,1.3-17.5,3.8-22.5
								c2.6-5,6.4-7.5,11.5-7.5c5.1,0,8.9,2.5,11.5,7.5c2.6,5,3.8,12.5,3.8,22.5c0,10-1.3,17.5-3.8,22.5
								C-152.6,63.9-156.4,66.4-161.6,66.4z M-161.6,74.2c8.2,0,14.4-3.2,18.7-9.7c4.3-6.5,6.5-15.8,6.5-28.1
								c0-12.3-2.2-21.6-6.5-28.1c-4.3-6.5-10.6-9.7-18.7-9.7c-8.2,0-14.4,3.2-18.7,9.7c-4.3,6.5-6.5,15.8-6.5,28.1
								c0,12.3,2.2,21.7,6.5,28.1C-176,71-169.7,74.2-161.6,74.2z"/>
						</g>
					</g>
				</g>
			</g>
			<g id="xtick_2">
				<g id="line2d_2">
					<g>
						<g>
							<path id="m46aa67d059_1_" class="st1" d="M319.5,183.6v3.5"/>
						</g>
					</g>
				</g>
				<g id="text_2">
					<g transform="translate(327.905114 198.198438)scale(0.1 -0.1)">
						<g transform="translate(0 0.3125)">
							<path id="DejaVuSans-Oblique-75" d="M-186.6,22l6.4,33h9l-6.4-32.7c-0.3-1.6-0.6-3-0.7-4.1c-0.1-1.1-0.2-2.1-0.2-2.8
								c0-2.8,0.8-4.9,2.5-6.4c1.7-1.5,4.1-2.3,7.2-2.3c4.8,0,9,1.6,12.5,4.9c3.5,3.3,5.8,7.6,6.9,13.2l6,30.3h9L-145,0.3h-9
								l1.8,8.6c-2.5-3.2-5.5-5.7-9-7.4c-3.5-1.7-7.2-2.6-11.2-2.6c-4.8,0-8.5,1.3-11.2,3.9c-2.7,2.6-4,6.3-4,11
								c0,1,0.1,2.2,0.2,3.7C-187.2,18.9-187,20.4-186.6,22z"/>
						</g>
						<g transform="translate(63.378906 -16.09375)scale(0.7)">
							<path id="DejaVuSans-Oblique-6d" d="M-67.1,7l-4.5-23.1h-6.3l4.4,22.9c0.2,1,0.3,1.8,0.4,2.5c0.1,0.7,0.1,1.3,0.1,1.8
								c0,2-0.6,3.6-1.7,4.8c-1.1,1.1-2.7,1.7-4.8,1.7c-3.1,0-5.8-1.1-8.2-3.4c-2.4-2.3-3.9-5.3-4.6-8.9l-4.2-21.4h-6.3l4.5,22.9
								c0.2,0.8,0.3,1.6,0.4,2.3c0.1,0.7,0.1,1.4,0.1,1.9c0,2.1-0.6,3.7-1.7,4.8c-1.1,1.2-2.7,1.7-4.7,1.7c-3.1,0-5.8-1.1-8.2-3.4
								c-2.4-2.3-3.9-5.3-4.6-8.9l-4.2-21.4h-6.3l7.5,38.3h6.3l-1.2-6c1.7,2.2,3.7,3.9,6,5.1c2.3,1.2,4.8,1.8,7.4,1.8
								c2.8,0,5.1-0.7,6.8-2.2c1.8-1.5,2.9-3.5,3.2-6.1c1.9,2.7,4.1,4.7,6.6,6.1c2.5,1.4,5.2,2.1,8,2.1c3.3,0,5.8-0.9,7.6-2.8
								c1.8-1.9,2.7-4.6,2.7-8c0-0.8,0-1.6-0.1-2.5C-66.8,8.9-66.9,8-67.1,7z"/>
						</g>
						<g transform="translate(131.567383 -16.09375)scale(0.7)">
							<path id="DejaVuSans-Oblique-61" d="M-24.2,5.7l-4.3-21.8h-6.3l1.2,5.8c-1.8-2.3-3.9-4-6.3-5.1c-2.4-1.1-5-1.7-7.9-1.7
								c-3.3,0-5.9,1-8,3c-2.1,2-3.1,4.6-3.1,7.7c0,4.5,1.8,8,5.3,10.6s8.5,3.9,14.7,3.9h8.8l0.3,1.7c0.1,0.2,0.1,0.4,0.1,0.6
								c0,0.2,0,0.6,0,1c0,2-0.8,3.6-2.5,4.7c-1.6,1.1-4,1.7-7,1.7c-2,0-4.2-0.3-6.3-0.8c-2.2-0.5-4.4-1.3-6.6-2.4l1.1,5.8
								c2.4,0.9,4.7,1.6,7,2c2.3,0.4,4.5,0.7,6.6,0.7c4.5,0,7.9-1,10.3-2.9c2.4-2,3.5-4.8,3.5-8.5c0-0.8-0.1-1.6-0.2-2.6
								C-23.8,8-23.9,6.9-24.2,5.7z M-31,3.1h-6.3c-5.2,0-9-0.7-11.4-2.1s-3.7-3.5-3.7-6.4c0-2,0.6-3.6,1.9-4.7
								c1.3-1.1,3-1.7,5.2-1.7c3.4,0,6.4,1.2,9,3.7s4.2,5.7,5.1,9.8L-31,3.1z"/>
						</g>
						<g transform="translate(174.462891 -16.09375)scale(0.7)">
							<path id="DejaVuSans-Oblique-78" d="M23.1,22.2L5.6,3.4l10.8-19.5H9.1L1-0.9l-14.1-15.2h-7.6L-1.9,4.1l-10,18.1h7.2L2.7,8.3
								l12.8,13.8H23.1z"/>
						</g>
					</g>
				</g>
			</g>
			<g id="text_3">
				<g transform="translate(208.58125 211.876563)scale(0.1 -0.1)">
					<g transform="translate(0 0.3125)">
						<path id="DejaVuSans-Oblique-75_1_" d="M-186.6,22l6.4,33h9l-6.4-32.7c-0.3-1.6-0.6-3-0.7-4.1c-0.1-1.1-0.2-2.1-0.2-2.8
							c0-2.8,0.8-4.9,2.5-6.4c1.7-1.5,4.1-2.3,7.2-2.3c4.8,0,9,1.6,12.5,4.9c3.5,3.3,5.8,7.6,6.9,13.2l6,30.3h9L-145,0.3h-9l1.8,8.6
							c-2.5-3.2-5.5-5.7-9-7.4c-3.5-1.7-7.2-2.6-11.2-2.6c-4.8,0-8.5,1.3-11.2,3.9c-2.7,2.6-4,6.3-4,11c0,1,0.1,2.2,0.2,3.7
							C-187.2,18.9-187,20.4-186.6,22z"/>
					</g>
				</g>
			</g>
		</g>
		<g id="matplotlib.axis_2">
			<g id="ytick_1">
				<g id="line2d_3">
					<g>
						<g>
							<path id="m78a8fa7843" class="st1" d="M52.7,175.6h-3.5"/>
						</g>
					</g>
				</g>
				<g id="text_4">
					<g transform="translate(58.6375 179.360582)scale(0.1 -0.1)">
						<g>
							<path id="DejaVuSans-30_1_" d="M-161.6,66.4c-5.1,0-8.9-2.5-11.5-7.5c-2.6-5-3.8-12.5-3.8-22.5c0-10,1.3-17.5,3.8-22.5
								c2.6-5,6.4-7.5,11.5-7.5c5.1,0,8.9,2.5,11.5,7.5c2.6,5,3.8,12.5,3.8,22.5c0,10-1.3,17.5-3.8,22.5
								C-152.6,63.9-156.4,66.4-161.6,66.4z M-161.6,74.2c8.2,0,14.4-3.2,18.7-9.7c4.3-6.5,6.5-15.8,6.5-28.1
								c0-12.3-2.2-21.6-6.5-28.1c-4.3-6.5-10.6-9.7-18.7-9.7c-8.2,0-14.4,3.2-18.7,9.7c-4.3,6.5-6.5,15.8-6.5,28.1
								c0,12.3,2.2,21.7,6.5,28.1C-176,71-169.7,74.2-161.6,74.2z"/>
						</g>
					</g>
				</g>
			</g>
			<g id="ytick_2">
				<g id="line2d_4">
					<g>
						<g>
							<path id="m78a8fa7843_1_" class="st1" d="M52.7,14.8h-3.5"/>
						</g>
					</g>
				</g>
				<g id="text_5">
					<g transform="translate(26.7 19.522231)scale(0.1 -0.1)">
						<g transform="translate(0 43.965625)scale(0.7)">
							<path id="DejaVuSans-31" d="M-184.6,49.8h11.3v38.9l-12.3-2.5v6.3l12.2,2.5h6.9V49.8h11.3V44h-29.4V49.8z"/>
						</g>
						<g transform="translate(0 -38.31875)scale(0.7)">
							<path id="DejaVuSans-34" d="M-166.9,6.7l-17.4-27.2h17.4V6.7z M-168.7,12.7h8.7v-33.3h7.3v-5.7h-7.3v-12h-6.9v12h-23v6.7
								L-168.7,12.7z"/>
						</g>
						<g transform="translate(57.036133 0.16875)">
							<path id="DejaVuSans-Oblique-76" d="M-129.1,54.9h9.5l8-46.5l26.2,46.5h9.5L-107,0.2h-12.1L-129.1,54.9z"/>
						</g>
						<g transform="translate(116.21582 -16.2375)scale(0.7)">
							<path id="DejaVuSans-30_2_" d="M-54.9,30.2c-3.6,0-6.2-1.8-8-5.2c-1.8-3.5-2.7-8.8-2.7-15.8c0-7,0.9-12.2,2.7-15.7
								c1.8-3.5,4.5-5.2,8-5.2c3.6,0,6.3,1.8,8,5.2C-45-3-44.1,2.2-44.1,9.2c0,7-0.9,12.3-2.7,15.8C-48.6,28.5-51.3,30.2-54.9,30.2z
								 M-54.9,35.7c5.7,0,10.1-2.3,13.1-6.8c3-4.5,4.5-11.1,4.5-19.7c0-8.6-1.5-15.1-4.5-19.7c-3-4.5-7.4-6.8-13.1-6.8
								c-5.7,0-10.1,2.3-13.1,6.8c-3,4.5-4.5,11.1-4.5,19.7c0,8.6,1.5,15.2,4.5,19.7C-65,33.5-60.6,35.7-54.9,35.7z"/>
						</g>
						<g transform="translate(163.486328 0.16875)">
							<path id="DejaVuSans-Oblique-75_2_" d="M-23.2,21.9l6.4,33h9l-6.4-32.7c-0.3-1.6-0.6-3-0.7-4.1s-0.2-2.1-0.2-2.8
								c0-2.8,0.8-4.9,2.5-6.4c1.7-1.5,4.1-2.3,7.2-2.3c4.8,0,9,1.6,12.5,4.9c3.5,3.3,5.8,7.6,6.9,13.2l6,30.3h9L18.4,0.2h-9
								l1.8,8.6c-2.5-3.2-5.5-5.7-9-7.4C-1.3-0.4-5-1.3-8.9-1.3c-4.8,0-8.5,1.3-11.2,3.9s-4,6.3-4,11c0,1,0.1,2.2,0.2,3.7
								C-23.7,18.8-23.5,20.3-23.2,21.9z"/>
						</g>
						<g transform="translate(226.865234 -16.2375)scale(0.7)">
							<path id="DejaVuSans-Oblique-6d_1_" d="M96.4,6.9l-4.5-23.1h-6.3L90,6.7c0.2,1,0.3,1.8,0.4,2.5c0.1,0.7,0.1,1.3,0.1,1.8
								c0,2-0.6,3.6-1.7,4.8c-1.1,1.1-2.7,1.7-4.8,1.7c-3.1,0-5.8-1.1-8.2-3.4c-2.4-2.3-3.9-5.3-4.6-8.9l-4.2-21.4h-6.3l4.5,22.9
								c0.2,0.8,0.3,1.6,0.4,2.3c0.1,0.7,0.1,1.4,0.1,1.9c0,2.1-0.6,3.7-1.7,4.8c-1.1,1.2-2.7,1.7-4.7,1.7c-3.1,0-5.8-1.1-8.2-3.4
								c-2.4-2.3-3.9-5.3-4.6-8.9l-4.2-21.4H36L43.5,22h6.3l-1.2-5.9c1.7,2.2,3.7,3.9,6,5.1c2.3,1.2,4.8,1.8,7.4,1.8
								c2.8,0,5.1-0.7,6.8-2.2c1.8-1.5,2.9-3.5,3.2-6.1c1.9,2.7,4.1,4.7,6.6,6.1c2.5,1.4,5.2,2.1,8,2.1c3.3,0,5.8-0.9,7.6-2.8
								c1.8-1.9,2.7-4.6,2.7-8c0-0.8,0-1.6-0.1-2.5C96.7,8.7,96.6,7.8,96.4,6.9z"/>
						</g>
						<g transform="translate(295.053711 -16.2375)scale(0.7)">
							<path id="DejaVuSans-Oblique-61_1_" d="M139.3,5.6L135-16.2h-6.3l1.2,5.8c-1.8-2.3-3.9-4-6.3-5.1c-2.4-1.1-5-1.7-7.9-1.7
								c-3.3,0-5.9,1-8,3c-2.1,2-3.1,4.6-3.1,7.7c0,4.5,1.8,8,5.3,10.6c3.6,2.6,8.5,3.9,14.7,3.9h8.8l0.3,1.7
								c0.1,0.2,0.1,0.4,0.1,0.6c0,0.2,0,0.6,0,1c0,2-0.8,3.6-2.5,4.7c-1.6,1.1-4,1.7-7,1.7c-2,0-4.2-0.3-6.3-0.8
								c-2.2-0.5-4.4-1.3-6.6-2.4l1.1,5.8c2.4,0.9,4.7,1.6,7,2c2.3,0.4,4.5,0.7,6.6,0.7c4.5,0,7.9-1,10.3-2.9c2.4-2,3.5-4.8,3.5-8.5
								c0-0.8-0.1-1.6-0.2-2.6C139.7,7.8,139.5,6.7,139.3,5.6z M132.5,3h-6.3c-5.2,0-9-0.7-11.4-2.1c-2.5-1.4-3.7-3.5-3.7-6.4
								c0-2,0.6-3.6,1.9-4.7c1.3-1.1,3-1.7,5.2-1.7c3.4,0,6.4,1.2,9,3.7s4.2,5.7,5.1,9.8L132.5,3z"/>
						</g>
						<g transform="translate(337.949219 -16.2375)scale(0.7)">
							<path id="DejaVuSans-Oblique-78_1_" d="M186.6,22L169.1,3.3l10.8-19.5h-7.2l-8.1,15.2l-14.1-15.2h-7.6l18.8,20.2l-10,18.1
								h7.2l7.3-13.8L179,22H186.6z"/>
						</g>
						<path d="M-193.3,19v6.2h44.5V19H-193.3z"/>
					</g>
				</g>
			</g>
			<g id="text_6">
				<g transform="translate(20.620312 104.025)rotate(-90)scale(0.1 -0.1)">
					<g transform="translate(0 0.015625)">
						<path id="DejaVuSans-Oblique-66" d="M48.9-18.7l-1.4-7.5h-8.6c-3.3,0-5.6-0.6-7.1-1.9c-1.5-1.3-2.6-3.6-3.3-7.1l-1-4.8h14.8
							l-1.3-7H26.2l-9.3-47.7h-9l9.3,47.7H8.6l1.3,7h8.6l0.7,3.8c1.2,6.4,3.4,11,6.5,13.6c3.1,2.6,8,3.9,14.7,3.9H48.9z"/>
					</g>
					<g transform="translate(35.205078 0.015625)">
						<path id="DejaVuSans-28" d="M67.3-18.8C63-26.3,59.7-33.7,57.6-41c-2.1-7.3-3.2-14.7-3.2-22.3c0-7.5,1.1-15,3.2-22.3
							c2.1-7.4,5.4-14.8,9.7-22.2h-7.8c-4.9,7.7-8.5,15.2-11,22.6c-2.4,7.4-3.6,14.7-3.6,22c0,7.3,1.2,14.6,3.6,21.9
							c2.4,7.4,6.1,14.9,11,22.6H67.3z"/>
					</g>
					<g transform="translate(74.21875 0.015625)">
						<path id="DejaVuSans-Oblique-75_3_" d="M82-73l6.4,33h9L91-72.6c-0.3-1.6-0.6-3-0.7-4.1c-0.1-1.1-0.2-2.1-0.2-2.8
							c0-2.8,0.8-4.9,2.5-6.4c1.7-1.5,4.1-2.3,7.2-2.3c4.8,0,9,1.6,12.5,4.9c3.5,3.3,5.8,7.6,6.9,13.2l6,30.3h9l-10.6-54.7h-9
							l1.8,8.6c-2.5-3.2-5.5-5.7-9-7.4c-3.5-1.7-7.2-2.6-11.2-2.6c-4.8,0-8.5,1.3-11.2,3.9c-2.7,2.6-4,6.3-4,11c0,1,0.1,2.2,0.2,3.7
							C81.4-76,81.7-74.5,82-73z"/>
					</g>
					<g transform="translate(137.597656 0.015625)">
						<path id="DejaVuSans-29" d="M146.7-18.8h7.8c4.9-7.7,8.5-15.2,11-22.6c2.4-7.4,3.6-14.7,3.6-21.9c0-7.3-1.2-14.6-3.6-22
							c-2.4-7.4-6.1-14.9-11-22.6h-7.8c4.3,7.5,7.6,14.9,9.7,22.2c2.1,7.4,3.2,14.8,3.2,22.3c0,7.5-1.1,14.9-3.2,22.3
							C154.3-33.7,151-26.3,146.7-18.8z"/>
					</g>
				</g>
			</g>
		</g>
		<g id="line2d_5">
			<g>
				<defs>
					<rect id="SVGID_1_" x="52.7" y="6.7" width="279.6" height="176.9"/>
				</defs>
				<clipPath id="SVGID_2_">
					<use xlink:href="#SVGID_1_"  style="overflow:visible;"/>
				</clipPath>
				<path class="st2" d="M65.4,175.6l2.6-6.4l2.6-6.3l2.6-6.2l2.6-6l2.6-5.9l2.6-5.8l2.6-5.6l2.6-5.5l2.6-5.4l2.6-5.2l2.6-5.1l2.6-5
					l2.6-4.9l2.6-4.7l2.6-4.6l2.6-4.5l2.6-4.3l2.6-4.2l2.6-4.1l2.6-3.9l2.6-3.8l2.6-3.7l2.6-3.5l2.6-3.4l2.6-3.3l2.6-3.1l2.6-3
					l2.6-2.9l2.6-2.8l2.6-2.6l2.6-2.5l2.6-2.4l2.6-2.2l2.6-2.1l2.6-2l2.6-1.8l2.6-1.7l2.6-1.6l2.6-1.4l2.6-1.3l2.6-1.2l2.6-1
					l2.6-0.9l2.6-0.8l2.6-0.7l2.6-0.5l2.6-0.4l2.6-0.3l2.6-0.1h2.6l2.6,0.1l2.6,0.3l2.6,0.4l2.6,0.5l2.6,0.7l2.6,0.8l2.6,0.9l2.6,1
					l2.6,1.2l2.6,1.3l2.6,1.4l2.6,1.6l2.6,1.7l2.6,1.8l2.6,2l2.6,2.1l2.6,2.2l2.6,2.4l2.6,2.5l2.6,2.6l2.6,2.8l2.6,2.9l2.6,3
					l2.6,3.1l2.6,3.3l2.6,3.4l2.6,3.5l2.6,3.7l2.6,3.8l2.6,3.9l2.6,4.1l2.6,4.2l2.6,4.3l2.6,4.5l2.6,4.6l2.6,4.7l2.6,4.9l2.6,5
					l2.6,5.1l2.6,5.2l2.6,5.4l2.6,5.5l2.6,5.6l2.6,5.8l2.6,5.9l2.6,6l2.6,6.2l2.6,6.3l2.6,6.4"/>
			</g>
		</g>
		<g id="patch_3">
			<path class="st3" d="M52.7,183.6V6.7"/>
		</g>
		<g id="patch_4">
			<path class="st3" d="M332.2,183.6V6.7"/>
		</g>
		<g id="patch_5">
			<path class="st3" d="M52.7,183.6h279.6"/>
		</g>
		<g id="patch_6">
			<path class="st3" d="M52.7,6.7h279.6"/>
		</g>
	</g>
</g>
</svg>
