<?xml version="1.0" encoding="utf-8" standalone="no"?>
<!DOCTYPE svg PUBLIC "-//W3C//DTD SVG 1.1//EN"
  "http://www.w3.org/Graphics/SVG/1.1/DTD/svg11.dtd">
<svg height="216pt" version="1.1" viewBox="0 0 360 216" width="360pt" xmlns="http://www.w3.org/2000/svg" xmlns:xlink="http://www.w3.org/1999/xlink">
 <metadata>
  <rdf:RDF xmlns:cc="http://creativecommons.org/ns#" xmlns:dc="http://purl.org/dc/elements/1.1/" xmlns:rdf="http://www.w3.org/1999/02/22-rdf-syntax-ns#">
   <cc:Work>
    <dc:type rdf:resource="http://purl.org/dc/dcmitype/StillImage"/>
    <dc:date>2021-06-08T11:46:05.548992</dc:date>
    <dc:format>image/svg+xml</dc:format>
    <dc:creator>
     <cc:Agent>
      <dc:title>Matplotlib v3.4.2, https://matplotlib.org/</dc:title>
     </cc:Agent>
    </dc:creator>
   </cc:Work>
  </rdf:RDF>
 </metadata>
 <defs>
  <style type="text/css">*{stroke-linecap:butt;stroke-linejoin:round;}</style>
 </defs>
 <g id="figure_1">
  <g id="patch_1">
   <path d="M 0 216 
L 360 216 
L 360 0 
L 0 0 
z
" style="fill:none;"/>
  </g>
  <g id="axes_1">
   <g id="patch_2">
    <path d="M 72 183.6 
L 351.5625 183.6 
L 351.5625 6.75 
L 72 6.75 
z
" style="fill:none;"/>
   </g>
   <g id="matplotlib.axis_1">
    <g id="xtick_1">
     <g id="line2d_1">
      <defs>
       <path d="M 0 0 
L 0 3.5 
" id="m0fed1d9974" style="stroke:#000000;stroke-width:0.8;"/>
      </defs>
      <g>
       <use style="stroke:#000000;stroke-width:0.8;" x="84.707386" xlink:href="#m0fed1d9974" y="183.6"/>
      </g>
     </g>
     <g id="text_1">
      <!-- 0 -->
      <g transform="translate(81.526136 198.198438)scale(0.1 -0.1)">
       <defs>
        <path d="M 2034 4250 
Q 1547 4250 1301 3770 
Q 1056 3291 1056 2328 
Q 1056 1369 1301 889 
Q 1547 409 2034 409 
Q 2525 409 2770 889 
Q 3016 1369 3016 2328 
Q 3016 3291 2770 3770 
Q 2525 4250 2034 4250 
z
M 2034 4750 
Q 2819 4750 3233 4129 
Q 3647 3509 3647 2328 
Q 3647 1150 3233 529 
Q 2819 -91 2034 -91 
Q 1250 -91 836 529 
Q 422 1150 422 2328 
Q 422 3509 836 4129 
Q 1250 4750 2034 4750 
z
" id="DejaVuSans-30" transform="scale(0.015625)"/>
       </defs>
       <use xlink:href="#DejaVuSans-30"/>
      </g>
     </g>
    </g>
    <g id="xtick_2">
     <g id="line2d_2">
      <g>
       <use style="stroke:#000000;stroke-width:0.8;" x="338.855114" xlink:href="#m0fed1d9974" y="183.6"/>
      </g>
     </g>
     <g id="text_2">
      <!-- $u_{max}$ -->
      <g transform="translate(327.905114 198.198438)scale(0.1 -0.1)">
       <defs>
        <path d="M 428 1388 
L 838 3500 
L 1416 3500 
L 1006 1409 
Q 975 1256 961 1147 
Q 947 1038 947 966 
Q 947 700 1109 554 
Q 1272 409 1569 409 
Q 2031 409 2368 721 
Q 2706 1034 2809 1563 
L 3194 3500 
L 3769 3500 
L 3091 0 
L 2516 0 
L 2631 550 
Q 2388 244 2052 76 
Q 1716 -91 1338 -91 
Q 878 -91 622 161 
Q 366 413 366 863 
Q 366 956 381 1097 
Q 397 1238 428 1388 
z
" id="DejaVuSans-Oblique-75" transform="scale(0.015625)"/>
        <path d="M 5747 2113 
L 5338 0 
L 4763 0 
L 5166 2094 
Q 5191 2228 5203 2325 
Q 5216 2422 5216 2491 
Q 5216 2772 5059 2928 
Q 4903 3084 4622 3084 
Q 4203 3084 3875 2770 
Q 3547 2456 3450 1953 
L 3066 0 
L 2491 0 
L 2900 2094 
Q 2925 2209 2937 2307 
Q 2950 2406 2950 2484 
Q 2950 2769 2794 2926 
Q 2638 3084 2363 3084 
Q 1938 3084 1609 2770 
Q 1281 2456 1184 1953 
L 800 0 
L 225 0 
L 909 3500 
L 1484 3500 
L 1375 2956 
Q 1609 3263 1923 3423 
Q 2238 3584 2597 3584 
Q 2978 3584 3223 3384 
Q 3469 3184 3519 2828 
Q 3781 3197 4126 3390 
Q 4472 3584 4856 3584 
Q 5306 3584 5551 3325 
Q 5797 3066 5797 2591 
Q 5797 2488 5784 2364 
Q 5772 2241 5747 2113 
z
" id="DejaVuSans-Oblique-6d" transform="scale(0.015625)"/>
        <path d="M 3438 1997 
L 3047 0 
L 2472 0 
L 2578 531 
Q 2325 219 2001 64 
Q 1678 -91 1281 -91 
Q 834 -91 548 182 
Q 263 456 263 884 
Q 263 1497 752 1853 
Q 1241 2209 2100 2209 
L 2900 2209 
L 2931 2363 
Q 2938 2388 2941 2417 
Q 2944 2447 2944 2509 
Q 2944 2788 2717 2942 
Q 2491 3097 2081 3097 
Q 1800 3097 1504 3025 
Q 1209 2953 897 2809 
L 997 3341 
Q 1322 3463 1633 3523 
Q 1944 3584 2234 3584 
Q 2853 3584 3176 3315 
Q 3500 3047 3500 2534 
Q 3500 2431 3484 2292 
Q 3469 2153 3438 1997 
z
M 2816 1759 
L 2241 1759 
Q 1534 1759 1195 1570 
Q 856 1381 856 984 
Q 856 709 1029 553 
Q 1203 397 1509 397 
Q 1978 397 2328 733 
Q 2678 1069 2791 1631 
L 2816 1759 
z
" id="DejaVuSans-Oblique-61" transform="scale(0.015625)"/>
        <path d="M 3841 3500 
L 2234 1784 
L 3219 0 
L 2559 0 
L 1819 1388 
L 531 0 
L -166 0 
L 1556 1844 
L 641 3500 
L 1300 3500 
L 1972 2234 
L 3144 3500 
L 3841 3500 
z
" id="DejaVuSans-Oblique-78" transform="scale(0.015625)"/>
       </defs>
       <use transform="translate(0 0.3125)" xlink:href="#DejaVuSans-Oblique-75"/>
       <use transform="translate(63.378906 -16.09375)scale(0.7)" xlink:href="#DejaVuSans-Oblique-6d"/>
       <use transform="translate(131.567383 -16.09375)scale(0.7)" xlink:href="#DejaVuSans-Oblique-61"/>
       <use transform="translate(174.462891 -16.09375)scale(0.7)" xlink:href="#DejaVuSans-Oblique-78"/>
      </g>
     </g>
    </g>
    <g id="text_3">
     <!-- $u$ -->
     <g transform="translate(208.58125 211.876563)scale(0.1 -0.1)">
      <use transform="translate(0 0.3125)" xlink:href="#DejaVuSans-Oblique-75"/>
     </g>
    </g>
   </g>
   <g id="matplotlib.axis_2">
    <g id="ytick_1">
     <g id="line2d_3">
      <defs>
       <path d="M 0 0 
L -3.5 0 
" id="m3cdc880255" style="stroke:#000000;stroke-width:0.8;"/>
      </defs>
      <g>
       <use style="stroke:#000000;stroke-width:0.8;" x="72" xlink:href="#m3cdc880255" y="175.561364"/>
      </g>
     </g>
     <g id="text_4">
      <!-- 0 -->
      <g transform="translate(58.6375 179.360582)scale(0.1 -0.1)">
       <use xlink:href="#DejaVuSans-30"/>
      </g>
     </g>
    </g>
    <g id="ytick_2">
     <g id="line2d_4">
      <g>
       <use style="stroke:#000000;stroke-width:0.8;" x="72" xlink:href="#m3cdc880255" y="14.788636"/>
      </g>
     </g>
     <g id="text_5">
      <!-- $v_0$ -->
      <g transform="translate(54.3 18.587855)scale(0.1 -0.1)">
       <defs>
        <path d="M 459 3500 
L 1069 3500 
L 1581 525 
L 3256 3500 
L 3866 3500 
L 1875 0 
L 1100 0 
L 459 3500 
z
" id="DejaVuSans-Oblique-76" transform="scale(0.015625)"/>
       </defs>
       <use transform="translate(0 0.3125)" xlink:href="#DejaVuSans-Oblique-76"/>
       <use transform="translate(59.179688 -16.09375)scale(0.7)" xlink:href="#DejaVuSans-30"/>
      </g>
     </g>
    </g>
    <g id="text_6">
     <!-- $v(u)$ -->
     <g transform="translate(48.220312 105.225)rotate(-90)scale(0.1 -0.1)">
      <defs>
       <path d="M 1984 4856 
Q 1566 4138 1362 3434 
Q 1159 2731 1159 2009 
Q 1159 1288 1364 580 
Q 1569 -128 1984 -844 
L 1484 -844 
Q 1016 -109 783 600 
Q 550 1309 550 2009 
Q 550 2706 781 3412 
Q 1013 4119 1484 4856 
L 1984 4856 
z
" id="DejaVuSans-28" transform="scale(0.015625)"/>
       <path d="M 513 4856 
L 1013 4856 
Q 1481 4119 1714 3412 
Q 1947 2706 1947 2009 
Q 1947 1309 1714 600 
Q 1481 -109 1013 -844 
L 513 -844 
Q 928 -128 1133 580 
Q 1338 1288 1338 2009 
Q 1338 2731 1133 3434 
Q 928 4138 513 4856 
z
" id="DejaVuSans-29" transform="scale(0.015625)"/>
      </defs>
      <use transform="translate(0 0.125)" xlink:href="#DejaVuSans-Oblique-76"/>
      <use transform="translate(59.179688 0.125)" xlink:href="#DejaVuSans-28"/>
      <use transform="translate(98.193359 0.125)" xlink:href="#DejaVuSans-Oblique-75"/>
      <use transform="translate(161.572266 0.125)" xlink:href="#DejaVuSans-29"/>
     </g>
    </g>
   </g>
   <g id="line2d_5">
    <path clip-path="url(#p7e55b659de)" d="M 84.707386 14.788636 
L 87.274535 16.412603 
L 89.841684 18.03657 
L 92.408833 19.660537 
L 94.975981 21.284504 
L 97.54313 22.908471 
L 100.110279 24.532438 
L 102.677428 26.156405 
L 105.244576 27.780372 
L 107.811725 29.404339 
L 110.378874 31.028306 
L 112.946023 32.652273 
L 115.513171 34.27624 
L 118.08032 35.900207 
L 120.647469 37.524174 
L 123.214618 39.14814 
L 125.781767 40.772107 
L 128.348915 42.396074 
L 130.916064 44.020041 
L 133.483213 45.644008 
L 136.050362 47.267975 
L 138.61751 48.891942 
L 141.184659 50.515909 
L 143.751808 52.139876 
L 146.318957 53.763843 
L 148.886105 55.38781 
L 151.453254 57.011777 
L 154.020403 58.635744 
L 156.587552 60.259711 
L 159.1547 61.883678 
L 161.721849 63.507645 
L 164.288998 65.131612 
L 166.856147 66.755579 
L 169.423295 68.379545 
L 171.990444 70.003512 
L 174.557593 71.627479 
L 177.124742 73.251446 
L 179.69189 74.875413 
L 182.259039 76.49938 
L 184.826188 78.123347 
L 187.393337 79.747314 
L 189.960486 81.371281 
L 192.527634 82.995248 
L 195.094783 84.619215 
L 197.661932 86.243182 
L 200.229081 87.867149 
L 202.796229 89.491116 
L 205.363378 91.115083 
L 207.930527 92.73905 
L 210.497676 94.363017 
L 213.064824 95.986983 
L 215.631973 97.61095 
L 218.199122 99.234917 
L 220.766271 100.858884 
L 223.333419 102.482851 
L 225.900568 104.106818 
L 228.467717 105.730785 
L 231.034866 107.354752 
L 233.602014 108.978719 
L 236.169163 110.602686 
L 238.736312 112.226653 
L 241.303461 113.85062 
L 243.87061 115.474587 
L 246.437758 117.098554 
L 249.004907 118.722521 
L 251.572056 120.346488 
L 254.139205 121.970455 
L 256.706353 123.594421 
L 259.273502 125.218388 
L 261.840651 126.842355 
L 264.4078 128.466322 
L 266.974948 130.090289 
L 269.542097 131.714256 
L 272.109246 133.338223 
L 274.676395 134.96219 
L 277.243543 136.586157 
L 279.810692 138.210124 
L 282.377841 139.834091 
L 284.94499 141.458058 
L 287.512138 143.082025 
L 290.079287 144.705992 
L 292.646436 146.329959 
L 295.213585 147.953926 
L 297.780733 149.577893 
L 300.347882 151.20186 
L 302.915031 152.825826 
L 305.48218 154.449793 
L 308.049329 156.07376 
L 310.616477 157.697727 
L 313.183626 159.321694 
L 315.750775 160.945661 
L 318.317924 162.569628 
L 320.885072 164.193595 
L 323.452221 165.817562 
L 326.01937 167.441529 
L 328.586519 169.065496 
L 331.153667 170.689463 
L 333.720816 172.31343 
L 336.287965 173.937397 
L 338.855114 175.561364 
" style="fill:none;stroke:#1f77b4;stroke-linecap:square;stroke-width:1.5;"/>
   </g>
   <g id="patch_3">
    <path d="M 72 183.6 
L 72 6.75 
" style="fill:none;stroke:#000000;stroke-linecap:square;stroke-linejoin:miter;stroke-width:0.8;"/>
   </g>
   <g id="patch_4">
    <path d="M 351.5625 183.6 
L 351.5625 6.75 
" style="fill:none;stroke:#000000;stroke-linecap:square;stroke-linejoin:miter;stroke-width:0.8;"/>
   </g>
   <g id="patch_5">
    <path d="M 72 183.6 
L 351.5625 183.6 
" style="fill:none;stroke:#000000;stroke-linecap:square;stroke-linejoin:miter;stroke-width:0.8;"/>
   </g>
   <g id="patch_6">
    <path d="M 72 6.75 
L 351.5625 6.75 
" style="fill:none;stroke:#000000;stroke-linecap:square;stroke-linejoin:miter;stroke-width:0.8;"/>
   </g>
  </g>
 </g>
 <defs>
  <clipPath id="p7e55b659de">
   <rect height="176.85" width="279.5625" x="72" y="6.75"/>
  </clipPath>
 </defs>
</svg>
